# xmcd
#
# Track frame offsets:
#	150
#	21249
#	44082
#	67752
#	90139
#	124000
#	156419
#	178910
#	203838
#	227116
#	241069
#	253463
#	271617
#	291163
#	309555
#
# Disc length: 4507 seconds
#
# Revision: 0
# Processed by: cddbd v1.5PL3 Copyright (c) Steve Scherf et al.
# Submitted via: audiograbber 1.83.01
#
DISCID=d011990f
DTITLE=Botafogo - Solo/Blues Acústico
DYEAR=1999
DGENRE=Blues
TTITLE0=My Baby
TTITLE1=Another Man Done Gone
TTITLE2=I'm The Hoochie Coochie Man
TTITLE3=Little Red Roster
TTITLE4=Blues Para Mi Guitarra
TTITLE5=Todo El Día Me Pregunto
TTITLE6=Despiértate Nena
TTITLE7=I'm Ready
TTITLE8=Imagine
TTITLE9=The Stumble
TTITLE10=Nickle Plated
TTITLE11=Manhole
TTITLE12=Hide Away
TTITLE13=Head's Up
TTITLE14=Funny Bone
EXTD=
EXTT0=
EXTT1=
EXTT2=
EXTT3=
EXTT4=
EXTT5=
EXTT6=
EXTT7=
EXTT8=
EXTT9=
EXTT10=
EXTT11=
EXTT12=
EXTT13=
EXTT14=
PLAYORDER=
